<svg id="Layer_1" data-name="Layer 1" xmlns="http://www.w3.org/2000/svg" viewBox="0 0 296.04 72">
  <defs>
    <style>
      .cls-1 {
        fill: #c00;
      }
    </style>
  </defs>
  <path class="cls-1" d="M242.4,48.79c1.09,5.1,4,6.92,10,6.92,5.28,0,8.2-1.91,8.2-4.92,0-4.28-3.92-4.64-12-6.73C239.12,41.6,233,39.51,230.2,37.5c-5.27-3.73-7.83-9-7.83-15.74C222.37,8.56,232.76,0,250.87,0,268.43,0,278.81,7.74,280,21.48H259.33c-.73-4.1-3.55-6-8.83-6-4.64,0-6.91,1.55-6.91,4.65,0,3.64,3.54,4.28,10.1,6,8.46,2.19,15.2,3.55,19.48,6.47,6,4,8.73,8.92,8.73,15.93C281.9,63.36,271.26,72,251.51,72c-18.3,0-29-8.64-30.41-23.21ZM162,43.6C160.84,61.53,149,72,129.44,72c-21.76,0-35-13.83-35-35.95,0-22.31,13.38-36,34.59-36,19.76,0,31.41,10,32.68,27.67H140.81c-.63-6.92-4.54-10.56-11.55-10.56-8.56,0-12.84,6.28-12.84,18.94,0,12.38,4.64,18.84,13.47,18.84,6.65,0,10.83-4,11.47-11.29ZM157.38,1.91h22.3L191.16,46,203.44,1.91h21.49L202,70.09H180.23ZM24.39.09a10,10,0,0,0-7.14,3L3,17.36A10.1,10.1,0,0,0,3,31.65L43.31,72,83.66,31.65a10.1,10.1,0,0,0,0-14.29L69.37,3.06a10.08,10.08,0,0,0-14.31,0L43.31,14.83,31.55,3.06a10.09,10.09,0,0,0-7.16-3Z"/>
  <path class="cls-1" d="M289.19,15.48a6.73,6.73,0,0,1-6.89-7,6.87,6.87,0,1,1,13.74,0A6.78,6.78,0,0,1,289.19,15.48Zm0-12.79c-3,0-5.39,2.38-5.39,5.79,0,3.18,2.06,5.78,5.39,5.78,3,0,5.35-2.36,5.35-5.78S292.18,2.69,289.19,2.69Zm-1.39,9.8h-1.27V4.73h2.94c1.87,0,2.83.66,2.83,2.23a2,2,0,0,1-2,2.12l2.18,3.41H291l-2-3.32h-1.2Zm1.42-4.4c1,0,1.8-.1,1.8-1.22,0-.94-.91-1-1.68-1H287.8V8.09Z"/>
</svg>
